<?xml version="1.0" encoding="UTF-8" standalone="no"?>
<svg
   xmlns:dc="http://purl.org/dc/elements/1.1/"
   xmlns:cc="http://creativecommons.org/ns#"
   xmlns:rdf="http://www.w3.org/1999/02/22-rdf-syntax-ns#"
   xmlns:svg="http://www.w3.org/2000/svg"
   xmlns="http://www.w3.org/2000/svg"
   xmlns:sodipodi="http://sodipodi.sourceforge.net/DTD/sodipodi-0.dtd"
   xmlns:inkscape="http://www.inkscape.org/namespaces/inkscape"
   version="1.1"
   id="svg2"
   xml:space="preserve"
   width="16"
   height="24"
   viewBox="0 0 16 24"
   sodipodi:docname="bag.eps"><metadata
     id="metadata8"><rdf:RDF><cc:Work
         rdf:about=""><dc:format>image/svg+xml</dc:format><dc:type
           rdf:resource="http://purl.org/dc/dcmitype/StillImage" /></cc:Work></rdf:RDF></metadata><defs
     id="defs6" /><sodipodi:namedview
     pagecolor="#ffffff"
     bordercolor="#666666"
     borderopacity="1"
     objecttolerance="10"
     gridtolerance="10"
     guidetolerance="10"
     inkscape:pageopacity="0"
     inkscape:pageshadow="2"
     inkscape:window-width="640"
     inkscape:window-height="480"
     id="namedview4" /><g
     id="g10"
     inkscape:groupmode="layer"
     inkscape:label="ink_ext_XXXXXX"
     transform="matrix(1.3333333,0,0,-1.3333333,0,24)"><g
       id="g12"
       transform="scale(0.1)"><path
         d="m 84.9688,14.8281 v 2.1485"
         style="fill:none;stroke:#d4002a;stroke-width:20.0013;stroke-linecap:round;stroke-linejoin:miter;stroke-miterlimit:22.9256;stroke-dasharray:none;stroke-opacity:1"
         id="path14" /><path
         d="m 39.0547,14.8281 v 2.1485"
         style="fill:none;stroke:#d4002a;stroke-width:20.0013;stroke-linecap:round;stroke-linejoin:miter;stroke-miterlimit:22.9256;stroke-dasharray:none;stroke-opacity:1"
         id="path16" /><path
         d="M 70.7305,142.625 H 52.4297 v -15.461 h 18.3008 v 15.461"
         style="fill:#d4002a;fill-opacity:1;fill-rule:evenodd;stroke:none"
         id="path18" /><path
         d="m 43.9063,147.793 h 35.3476 c 1.6016,0 2.9024,1.301 2.9024,2.902 v 16.692 c 0,1.597 -1.3008,2.902 -2.9024,2.902 H 43.9063 c -1.5977,0 -2.9024,-1.305 -2.9024,-2.902 v -16.692 c 0,-1.601 1.3047,-2.902 2.9024,-2.902 z"
         style="fill:none;stroke:#d4002a;stroke-width:15.0009;stroke-linecap:butt;stroke-linejoin:miter;stroke-miterlimit:22.9256;stroke-dasharray:none;stroke-opacity:1"
         id="path20" /><path
         d="m 30.3594,125.953 h 62.4414 c 5.9765,0 10.8592,-5.894 10.8592,-13.105 V 34.9961 c 0,-7.2109 -4.8827,-13.1055 -10.8592,-13.1055 H 30.3594 C 24.3867,21.8906 19.5,27.7852 19.5,34.9961 v 77.8519 c 0,7.211 4.8867,13.105 10.8594,13.105 z"
         style="fill:none;stroke:#d4002a;stroke-width:20.0013;stroke-linecap:butt;stroke-linejoin:miter;stroke-miterlimit:22.9256;stroke-dasharray:none;stroke-opacity:1"
         id="path22" /></g></g></svg>
