<?xml version="1.0" encoding="UTF-8" standalone="no"?>
<svg
   xmlns:dc="http://purl.org/dc/elements/1.1/"
   xmlns:cc="http://creativecommons.org/ns#"
   xmlns:rdf="http://www.w3.org/1999/02/22-rdf-syntax-ns#"
   xmlns:svg="http://www.w3.org/2000/svg"
   xmlns="http://www.w3.org/2000/svg"
   xmlns:sodipodi="http://sodipodi.sourceforge.net/DTD/sodipodi-0.dtd"
   xmlns:inkscape="http://www.inkscape.org/namespaces/inkscape"
   version="1.1"
   id="svg2"
   xml:space="preserve"
   width="21.333332"
   height="21.333332"
   viewBox="0 0 21.333332 21.333332"
   sodipodi:docname="luggage.eps"><metadata
     id="metadata8"><rdf:RDF><cc:Work
         rdf:about=""><dc:format>image/svg+xml</dc:format><dc:type
           rdf:resource="http://purl.org/dc/dcmitype/StillImage" /></cc:Work></rdf:RDF></metadata><defs
     id="defs6" /><sodipodi:namedview
     pagecolor="#ffffff"
     bordercolor="#666666"
     borderopacity="1"
     objecttolerance="10"
     gridtolerance="10"
     guidetolerance="10"
     inkscape:pageopacity="0"
     inkscape:pageshadow="2"
     inkscape:window-width="640"
     inkscape:window-height="480"
     id="namedview4" /><g
     id="g10"
     inkscape:groupmode="layer"
     inkscape:label="ink_ext_XXXXXX"
     transform="matrix(1.3333333,0,0,-1.3333333,0,21.333333)"><g
       id="g12"
       transform="scale(0.1)"><path
         d="M 25.8086,116.539 H 129.684 c 7.222,0 13.125,-5.906 13.125,-13.125 V 27.9531 c 0,-7.2226 -5.903,-13.125 -13.125,-13.125 H 25.8086 c -7.2227,0 -13.125,5.9024 -13.125,13.125 v 75.4609 c 0,7.219 5.9023,13.125 13.125,13.125 z m 27.2695,28.238 h 49.3399 c 2.004,0 3.641,-1.636 3.641,-3.64 V 120.18 c 0,-2 -1.637,-3.641 -3.641,-3.641 H 53.0781 c -2.0078,0 -3.6445,1.641 -3.6445,3.641 v 20.957 c 0,2.004 1.6367,3.64 3.6445,3.64 z"
         style="fill:none;stroke:#d4002a;stroke-width:20.0013;stroke-linecap:butt;stroke-linejoin:miter;stroke-miterlimit:22.9256;stroke-dasharray:none;stroke-opacity:1"
         id="path14" /></g></g></svg>
